# xmcd
#
# Track frame offsets: 
#        150
#        11957
#        21857
#        41502
#        51305
#        67340
#        76420
#        87755
#        96212
#        112830
#        126960
#        138340
#        150655
#        166340
#        181025
#        192190
#        211882
#        226197
#
# Disc length: 3295 seconds
#
# Revision: 3
# Processed by: cddbd v1.5.2PL0 Copyright (c) Steve Scherf et al.
# Submitted via: ExactAudioCopyFreeDBPlugin 1.0
#
DISCID=ea0cdd12
DTITLE=朱逢博 - 20世纪中华歌坛名人百集珍藏版合集
DYEAR=1996
DGENRE=Pop
TTITLE0=赶牲灵
TTITLE1=请茶歌
TTITLE2=滑雪歌
TTITLE3=绣荷包
TTITLE4=夜来香
TTITLE5=北风吹
TTITLE6=扎红头绳
TTITLE7=喜儿哭爹
TTITLE8=橄榄树
TTITLE9=美丽的心灵
TTITLE10=尼罗河畔的歌声
TTITLE11=夏日最后的玫瑰
TTITLE12=蓝花花
TTITLE13=阿里山的姑娘
TTITLE14=卖花
TTITLE15=回忆童年
TTITLE16=红河谷
TTITLE17=那就是我
EXTD=
EXTT0=
EXTT1=
EXTT2=
EXTT3=
EXTT4=
EXTT5=
EXTT6=
EXTT7=
EXTT8=
EXTT9=
EXTT10=
EXTT11=
EXTT12=
EXTT13=
EXTT14=
EXTT15=
EXTT16=
EXTT17=
PLAYORDER=
